<svg width="256" height="256" viewBox="0 0 256 256" fill="none" xmlns="http://www.w3.org/2000/svg">
  <rect width="256" height="256" rx="64" fill="#0B1208"/>
  <rect x="18" y="18" width="220" height="220" rx="50" stroke="#B6F542" stroke-width="10"/>
  <path d="M73 164L108 86H130L165 164H141L135 149H103L97 164H73ZM109.5 131H128.5L119 106L109.5 131Z" fill="#B6F542"/>
  <path d="M128 61C143 48 162 45 183 52C178 70 166 83 147 91C139 78 133 68 128 61Z" fill="#B6F542" opacity="0.72"/>
  <path d="M128 61C113 48 94 45 73 52C78 70 90 83 109 91C117 78 123 68 128 61Z" fill="#B6F542" opacity="0.72"/>
  <path d="M70 190H186" stroke="#B6F542" stroke-width="12" stroke-linecap="round"/>
  <path d="M91 204H165" stroke="#FFFFFF" stroke-width="6" stroke-linecap="round" opacity="0.7"/>
</svg>
